# xmcd
#
# Track frame offsets:
#	150
#	58428
#	80165
#	103763
#	120866
#	157235
#	183939
#	201040
#	239498
#	256541
#	291980
#
# Disc length: 4217 seconds
#
# Revision: 0
# Processed by: cddbd v1.5.2PL0 Copyright (c) Steve Scherf et al.
# Submitted via: EasyCDDAExtractor 16.1.0.1
#
DISCID=9e10770b
DTITLE=Pet Shop Boys - Left To My Own Remixes 1
DYEAR=1900
DGENRE=
TTITLE0=Left To My Own Devices (Ivy League Extended Rhythm Mix)
TTITLE1=Se A Vida E (Nudelmix)
TTITLE2=Domino Dancing (Ivy League Edit)
TTITLE3=Metamorphosis (Nudelmix)
TTITLE4=Red Letter Day (Extended Bootleg Mix)
TTITLE5=We All Feel Better In The Dark (Nudelmix)
TTITLE6=It´´s Alright (Ivy League 7" Mix)
TTITLE7=Shameless (Ivy League Grandeur Mix)
TTITLE8=Your Funny Uncle (Nudelmix Dub)
TTITLE9=Before (Fancy Extended Nudelmix)
TTITLE10=Domino Dancing (DMC Mix)
EXTD=
EXTT0=
EXTT1=
EXTT2=
EXTT3=
EXTT4=
EXTT5=
EXTT6=
EXTT7=
EXTT8=
EXTT9=
EXTT10=
PLAYORDER=
